<?xml version="1.0" standalone="no"?>
<!DOCTYPE svg PUBLIC "-//W3C//DTD SVG 20010904//EN"
 "http://www.w3.org/TR/2001/REC-SVG-20010904/DTD/svg10.dtd">
<svg version="1.0" xmlns="http://www.w3.org/2000/svg"
 width="577.000000pt" height="433.000000pt" viewBox="0 0 577.000000 433.000000"
 preserveAspectRatio="xMidYMid meet">

<g transform="translate(0.000000,433.000000) scale(0.100000,-0.100000)"
fill="#000000" stroke="none">
<path d="M3749 3219 c-56 -68 -127 -157 -157 -198 -108 -147 -122 -161 -163
-161 -22 0 -41 -7 -50 -17 -27 -34 -49 -81 -49 -106 0 -14 -4 -29 -10 -32 -5
-3 -10 -22 -10 -42 0 -27 -11 -50 -40 -90 -23 -29 -45 -53 -51 -53 -17 0 -23
32 -8 44 17 14 36 42 52 79 6 15 17 27 23 27 29 0 39 262 13 325 -14 33 -16
64 -13 178 3 86 0 137 -6 137 -5 0 -36 -20 -67 -44 -64 -47 -118 -78 -125 -70
-3 3 -18 -1 -33 -8 -23 -10 -28 -10 -36 4 -9 16 -15 15 -73 -7 -62 -23 -66
-24 -113 -9 -45 15 -119 47 -153 66 -48 27 -53 23 -70 -57 -6 -27 -19 -67 -28
-88 -11 -26 -12 -41 -5 -45 20 -13 24 -68 10 -113 -18 -55 -20 -67 -20 -161 1
-54 5 -83 17 -99 25 -37 19 -60 -30 -119 -45 -55 -56 -75 -100 -184 -28 -69
-32 -164 -10 -217 8 -19 28 -47 45 -63 28 -27 34 -28 85 -22 l54 6 -27 -28
c-16 -15 -35 -53 -45 -87 -10 -33 -24 -76 -32 -96 -7 -20 -11 -39 -8 -41 2 -3
-2 -21 -11 -41 -17 -42 -11 -41 -305 -57 -222 -12 -514 -46 -549 -63 -40 -20
-31 -54 66 -246 75 -150 95 -182 147 -232 41 -39 74 -61 103 -70 52 -14 55
-34 18 -94 -13 -22 -25 -49 -25 -60 0 -16 5 -13 28 15 39 45 51 23 16 -29 -14
-22 -24 -46 -22 -53 3 -7 12 1 23 20 10 17 25 34 33 37 14 5 14 4 -4 -62 -8
-29 14 -31 46 -3 30 26 44 25 37 -1 -5 -17 -3 -18 11 -7 9 7 31 30 50 51 49
53 126 107 153 107 13 0 67 -7 121 -16 84 -14 110 -15 186 -4 48 7 161 14 252
15 98 1 176 6 193 13 15 6 78 16 140 22 342 30 468 91 633 300 122 155 187
288 240 487 20 74 23 97 13 109 -16 20 -76 17 -129 -7 -24 -11 -92 -26 -150
-34 -144 -20 -254 -40 -387 -71 -62 -15 -118 -24 -125 -22 -7 3 -19 26 -27 52
-11 40 -11 58 5 141 10 52 20 99 24 105 3 6 33 17 65 25 32 9 81 28 109 43 41
22 56 37 79 82 55 110 59 283 9 370 -15 25 -34 54 -44 64 -31 33 -31 55 -4 91
36 47 32 68 -4 25 -16 -19 -30 -31 -30 -27 0 9 297 396 354 462 19 22 38 37
41 33 3 -3 -40 -63 -97 -133 -57 -70 -131 -161 -165 -204 -34 -42 -58 -77 -53
-79 12 -4 77 66 178 193 87 109 129 152 138 142 3 -3 -1 -16 -10 -29 -19 -26
-21 -61 -5 -90 9 -17 6 -25 -18 -52 -75 -80 -73 -73 -73 -248 0 -91 4 -168 10
-179 10 -17 22 -19 118 -19 89 0 112 3 140 20 36 22 32 -1 33 244 l0 99 -64
66 c-61 62 -64 68 -60 104 4 32 1 43 -20 65 -20 21 -27 39 -29 82 -3 54 -4 55
-35 58 -30 3 -39 -5 -134 -119z m155 -54 c-4 -8 -8 -15 -10 -15 -2 0 -4 7 -4
15 0 8 4 15 10 15 5 0 7 -7 4 -15z m-854 -50 c0 -48 22 -93 61 -123 46 -37
104 -65 134 -66 27 -1 30 -4 32 -36 8 -115 2 -155 -28 -217 -17 -35 -35 -63
-40 -63 -5 0 -17 -17 -28 -37 -11 -21 -35 -53 -54 -72 -37 -35 -30 -34 -157
-20 -8 1 -24 9 -35 19 -33 29 -63 41 -70 29 -5 -7 -14 -4 -29 8 -30 27 -72 46
-84 39 -5 -3 -17 3 -27 14 -10 11 -24 20 -30 20 -7 0 -15 9 -18 20 -4 15 0 20
15 20 51 0 255 81 307 122 14 11 31 29 38 41 17 31 16 97 -2 118 -9 9 -17 32
-18 50 -2 19 -10 48 -19 64 -9 17 -19 47 -23 67 -7 36 -6 37 27 41 18 2 36 5
41 5 4 1 7 -18 7 -43z m-250 -89 c0 -2 -8 -10 -17 -17 -16 -13 -17 -12 -4 4
13 16 21 21 21 13z m1185 -108 c4 -4 4 -21 0 -38 l-7 -32 -16 24 c-8 13 -17
25 -19 27 -1 2 -12 -4 -23 -14 -13 -11 -20 -31 -20 -53 0 -28 -3 -32 -13 -23
-20 16 -27 3 -27 -50 0 -37 6 -54 26 -76 l25 -28 -15 32 c-23 46 -21 89 4 96
16 4 20 14 20 45 0 49 12 60 30 26 8 -13 20 -22 27 -20 10 4 13 -7 13 -41 l0
-47 -30 29 -30 29 0 -32 c0 -18 -7 -35 -16 -40 -22 -12 -14 -47 11 -47 11 0
26 -4 33 -8 6 -5 17 -5 22 -2 6 3 10 2 10 -4 0 -5 -8 -12 -17 -14 -15 -4 -15
-6 4 -12 40 -13 13 -25 -55 -25 -64 1 -66 1 -42 16 l25 15 -27 -5 c-14 -3 -33
-9 -41 -12 -13 -5 -16 15 -16 146 l0 152 79 -3 c43 -2 81 -7 85 -11z m83 -113
c-1 -119 -2 -125 -24 -140 -23 -14 -24 -14 -24 5 0 11 4 20 9 20 12 0 21 40
15 67 -9 36 -23 27 -17 -11 3 -18 1 -36 -3 -39 -5 -3 -10 46 -11 109 l-2 114
29 0 29 0 -1 -125z m-1223 26 c1 -35 -1 -38 -17 -30 -23 12 -23 38 0 55 9 7
17 13 17 14 0 0 0 -18 0 -39z m100 19 c9 -10 15 -26 12 -35 -10 -25 -25 -17
-19 11 4 20 1 25 -13 22 -10 -2 -20 3 -22 10 -7 19 22 14 42 -8z m504 -22 c11
-11 28 -43 36 -69 9 -26 23 -53 31 -59 7 -7 14 -26 14 -42 0 -22 4 -29 14 -25
12 5 15 -8 14 -71 -1 -106 -21 -164 -70 -207 -23 -19 -37 -38 -33 -45 4 -6 -2
-21 -12 -33 -22 -24 -37 -57 -34 -71 1 -5 -3 -12 -10 -16 -18 -12 -121 1 -146
17 -18 12 -23 12 -23 2 0 -21 32 -49 57 -49 24 0 31 -14 13 -25 -5 -3 -10 -17
-10 -31 0 -13 -4 -24 -10 -24 -6 0 -10 -27 -10 -62 0 -59 -1 -61 -19 -44 -10
9 -22 31 -27 49 l-8 32 -3 -38 c-3 -22 1 -45 8 -54 15 -17 35 -51 45 -73 3 -8
10 -24 14 -35 17 -41 22 -95 8 -99 -7 -2 -83 -14 -168 -26 -168 -23 -298 -46
-345 -60 -16 -5 -56 -13 -87 -18 l-57 -9 47 60 c47 59 128 156 263 313 l71 81
43 -5 c61 -6 92 4 109 36 12 24 12 35 1 80 -8 29 -16 56 -19 60 -3 4 17 37 45
72 27 35 49 67 49 72 0 11 38 10 42 -1 4 -12 57 -16 87 -7 15 5 26 4 31 -4 10
-17 49 40 66 97 18 58 9 74 -58 103 -81 33 -101 74 -54 105 20 13 29 14 46 5
12 -6 24 -10 26 -7 10 10 -28 37 -52 37 -28 0 -31 12 -8 35 11 10 25 14 40 11
17 -5 24 -2 24 8 0 7 -10 16 -22 19 -18 5 -19 8 -8 21 17 21 25 20 49 -6z
m-762 -268 c12 -14 22 -22 23 -17 0 4 13 1 29 -7 16 -9 31 -12 34 -9 4 3 12 2
19 -4 7 -5 33 -15 58 -23 25 -7 60 -22 78 -33 41 -24 149 -34 182 -17 22 12
22 12 6 -11 -23 -33 -20 -46 5 -23 22 19 22 19 11 -1 -28 -51 -57 -74 -84 -68
-16 3 -28 11 -28 18 0 15 -113 13 -175 -3 -22 -6 -41 -9 -44 -7 -2 2 -11 0
-21 -5 -14 -8 -17 -3 -18 32 -2 52 -10 60 -18 20 -4 -18 -10 -32 -15 -32 -4 0
-14 -12 -21 -27 -14 -29 -29 -39 -70 -48 -16 -3 -28 -10 -28 -17 0 -17 96 -2
133 21 39 24 104 42 175 48 65 6 146 -24 188 -69 20 -21 23 -29 12 -25 -24 8
-23 -6 1 -27 25 -23 34 -61 21 -86 -12 -23 -30 -26 -30 -6 0 20 -46 73 -56 64
-4 -5 0 -16 8 -25 24 -29 29 -53 13 -60 -17 -6 -29 2 -100 62 -39 33 -48 36
-56 24 -4 -9 -21 -16 -36 -17 -15 0 -39 -5 -53 -10 -19 -7 -34 -4 -63 11 -34
18 -73 23 -148 18 -14 0 -39 -12 -55 -26 -35 -30 -74 -34 -74 -7 0 10 12 25
26 32 14 8 33 28 41 45 14 27 50 74 87 115 20 22 38 97 31 130 -4 16 -15 47
-26 69 -10 22 -19 43 -19 47 0 9 31 -15 57 -46z m583 -72 c-99 -124 -93 -117
-84 -93 14 34 154 207 162 200 2 -2 -33 -50 -78 -107z m154 76 c9 -9 16 -32
16 -54 0 -30 -6 -43 -31 -64 -17 -14 -41 -26 -53 -26 -26 0 -86 19 -86 28 0 3
12 21 27 41 66 91 95 107 127 75z m-248 -92 c-18 -16 -19 -16 -12 1 3 10 6 24
6 30 0 8 4 7 12 -1 10 -9 8 -16 -6 -30z m-16 -135 c0 -2 -10 -12 -22 -23 l-23
-19 19 23 c18 21 26 27 26 19z m-248 -212 c-14 -16 -46 -53 -71 -82 l-46 -51
0 48 c0 34 -6 55 -17 67 -17 16 -15 18 35 33 28 9 68 16 88 16 l37 -1 -26 -30z
m52 -49 c-21 -25 -40 -44 -42 -41 -2 2 13 24 34 49 21 25 40 44 42 41 2 -2
-13 -24 -34 -49z m1126 -141 c0 -35 -67 -240 -102 -310 -72 -146 -70 -130 16
135 37 113 41 136 29 145 -12 9 -11 14 7 32 20 23 50 21 50 -2z m-80 -9 c0
-13 -67 -136 -74 -136 -4 0 38 124 47 138 11 16 27 15 27 -2z m-67 -27 c-4
-16 -35 -35 -110 -70 -150 -70 -131 -73 33 -4 45 19 63 19 44 2 -27 -25 -134
-66 -235 -91 -158 -38 -167 -39 -110 -11 28 14 39 23 25 20 -75 -17 -233 -46
-318 -60 -53 -8 -122 -20 -152 -25 -82 -14 -284 -38 -375 -44 l-80 -5 105 19
c58 11 173 32 255 46 382 65 540 96 617 124 63 22 295 113 305 119 0 1 -1 -9
-4 -20z m-1294 -88 c-36 -49 -119 -141 -119 -132 0 6 8 19 18 29 9 10 37 41
61 70 42 50 68 72 40 33z"/>
<path d="M3124 2890 c-33 -13 -56 -50 -42 -67 41 -49 121 -52 158 -6 27 34 26
40 -12 63 -35 21 -69 24 -104 10z m81 -20 c3 -5 -1 -10 -10 -10 -9 0 -13 5
-10 10 3 6 8 10 10 10 2 0 7 -4 10 -10z m-79 -30 c1 -24 -1 -28 -12 -19 -17
14 -18 36 -1 42 6 3 12 6 12 6 0 1 0 -13 1 -29z m101 -12 c-3 -7 -5 -2 -5 12
0 14 2 19 5 13 2 -7 2 -19 0 -25z"/>
<path d="M3000 2722 c-24 -19 -21 -42 5 -42 7 0 17 -10 21 -22 14 -45 -76 -90
-106 -53 -18 22 -31 18 -21 -7 4 -12 21 -26 37 -31 16 -5 37 -16 46 -24 24
-21 105 -8 135 20 12 12 31 31 42 41 22 20 29 66 11 66 -5 0 -10 -9 -10 -20 0
-27 -47 -57 -68 -43 -27 16 -32 55 -10 79 11 12 16 28 12 37 -8 23 -66 22 -94
-1z"/>
<path d="M3113 2655 c-18 -20 -16 -24 7 -18 11 3 20 12 20 19 0 18 -11 17 -27
-1z"/>
<path d="M2964 2645 c8 -8 17 -15 20 -15 3 0 3 7 0 15 -4 8 -13 15 -21 15 -12
0 -12 -2 1 -15z"/>
<path d="M3930 2660 c0 -11 5 -20 10 -20 6 0 10 9 10 20 0 11 -4 20 -10 20 -5
0 -10 -9 -10 -20z"/>
<path d="M2415 2910 c-3 -5 -16 -10 -29 -10 -12 0 -26 -3 -30 -7 -4 -4 -17 -8
-29 -8 -80 -4 -83 -5 -63 -17 14 -8 24 -8 36 0 12 7 21 7 28 0 7 -7 16 -6 30
1 11 6 32 11 46 11 14 0 26 2 26 4 0 2 3 11 6 20 7 17 -11 22 -21 6z"/>
<path d="M2022 2658 c-12 -6 -32 -26 -43 -45 -14 -22 -28 -33 -44 -33 -12 0
-36 -7 -51 -15 -16 -8 -39 -15 -52 -15 -14 0 -21 -4 -16 -11 8 -13 72 -3 93
14 8 7 24 10 37 9 17 -3 29 6 50 38 41 61 98 68 122 15 7 -17 17 -37 21 -45
10 -18 111 -31 150 -20 24 8 23 9 -14 11 -22 2 -53 3 -70 3 -40 1 -52 10 -60
46 -11 52 -68 74 -123 48z"/>
<path d="M1855 2309 c-9 -14 -52 -31 -105 -40 -37 -7 -32 -7 24 -4 47 3 75 10
88 22 19 17 20 16 39 -7 14 -19 19 -21 19 -8 0 31 -12 48 -35 48 -13 0 -27 -5
-30 -11z"/>
<path d="M2201 2182 c-31 -32 -47 -41 -87 -47 -59 -8 -94 -25 -53 -25 14 0 48
3 74 7 39 5 51 12 64 35 18 32 40 42 90 40 42 -2 30 15 -17 24 -29 6 -37 2
-71 -34z"/>
<path d="M1941 1943 c-5 -10 -31 -23 -58 -29 l-48 -12 52 -1 c46 -1 55 2 70
25 l17 26 16 -22 c13 -17 24 -21 56 -18 l39 4 -33 9 c-19 4 -36 14 -39 21 -7
20 -60 17 -72 -3z"/>
</g>
</svg>
